<?xml version="1.0" encoding="utf-8"?>
<!-- Generator: Adobe Illustrator 15.1.0, SVG Export Plug-In . SVG Version: 6.00 Build 0)  -->
<!DOCTYPE svg PUBLIC "-//W3C//DTD SVG 1.1//EN" "http://www.w3.org/Graphics/SVG/1.1/DTD/svg11.dtd">
<svg version="1.1" id="Layer_1" xmlns="http://www.w3.org/2000/svg" xmlns:xlink="http://www.w3.org/1999/xlink" x="0px" y="0px"
	 width="32px" height="32px" viewBox="0 0 32 32" enable-background="new 0 0 32 32" xml:space="preserve">
<path id="colourise" fill="#FFFFFF" d="M29,26.8c0,1.3-1,2.2-2.2,2.2H5.2C3.9,29,3,28,3,26.8V5.2C3,3.9,3.9,3,5.2,3h21.5
	C28,3,29,3.9,29,5.2V26.8z M24.6,6.4C23.5,6,20.9,6,20.9,6c-1.7,0-2.601,0.6-3.2,1.5c-0.5,1-0.5,2.3-0.5,3.2v0.2v0.9v1h-2.1v3h2.1
	v10.4h3.7V15.7H24l0.2-3H21v-1.1v-1v-0.3c0-0.8,0.8-1.1,1.7-1.1c0,0,0.8,0,1.7,0.4L24.6,6.4z"/>
</svg>
