<?xml version="1.0" encoding="utf-8"?>
<!-- Generator: Adobe Illustrator 15.1.0, SVG Export Plug-In . SVG Version: 6.00 Build 0)  -->
<!DOCTYPE svg PUBLIC "-//W3C//DTD SVG 1.1//EN" "http://www.w3.org/Graphics/SVG/1.1/DTD/svg11.dtd">
<svg version="1.1" id="Layer_1" xmlns="http://www.w3.org/2000/svg" xmlns:xlink="http://www.w3.org/1999/xlink" x="0px" y="0px"
	 width="32px" height="32px" viewBox="0 0 32 32" enable-background="new 0 0 32 32" xml:space="preserve">
<path id="colourise" fill="#FFFFFF" d="M28.2,14.8c-1.601,6.8-8.8,10.8-15.5,10.8C7.6,25.6,3,23.5,0,19c1.6,1.4,3.6,2.4,5.8,2.4
	c2.4,0,4.4-1,6-2.601c-0.8,0-2.2-0.5-2.2-1.399c0-0.801,0.8-1.3,1.4-1.4c-1.6,0.2-3.2-0.5-4-2c0.6-0.6,1.4-0.8,2.2-0.8
	C7.4,12.7,6,11.6,5.6,9.8c0.5-0.2,1-0.2,1.6-0.2h0.2C6,8.8,4.6,7.4,4.8,5.6V5.4c2.8,1,5.6,2.2,8.2,3.8c0.8,0.6,1.6,1.3,2.4,2
	c1-2.8,2.4-6.3,5-8c0,0.5-0.2,0.8-0.5,1c0.699-0.7,1.699-1,2.5-1.3c0,0.8-1,1-1.601,1.4c0.8-0.2,1.8-0.8,2.601-0.8
	c0.199,0,0.5,0,0.5,0.5c0,0.6-2.2,1-2.801,1.3c3.601-0.5,6.4,3,7.101,6.3c0.5,0.2,0.8,0.2,1.3,0.2c0.8,0,2-0.2,2.6-0.6
	c-0.6,1.4-2.199,2-3.6,2.2c0.8,0.5,1.8,0.5,2.6,0.5c0.5,0,0.601,0,1,0C31.1,14.4,29.7,14.8,28.2,14.8z"/>
</svg>
